<?xml version="1.0" encoding="utf-8"?>
<!-- Generator: Adobe Illustrator 17.1.0, SVG Export Plug-In . SVG Version: 6.00 Build 0)  -->
<!DOCTYPE svg PUBLIC "-//W3C//DTD SVG 1.0//EN" "http://www.w3.org/TR/2001/REC-SVG-20010904/DTD/svg10.dtd">
<svg version="1.0" id="Layer_1" xmlns="http://www.w3.org/2000/svg" xmlns:xlink="http://www.w3.org/1999/xlink" x="0px" y="0px"
	 viewBox="0 0 24 18" enable-background="new 0 0 24 18" xml:space="preserve">
<path class="svg-path" fill="#FF0000" d="M12,8L6.7,3.8C6.6,3.7,6.4,3.6,6.2,3.6c-0.4,0-0.7,0.3-0.7,0.7c0,0.2,0.2,0.4,0.4,0.5l5.7,4.3c0.1,0.1,0.3,0.2,0.5,0.2h0
	c0.2,0,0.4-0.1,0.5-0.2l5.7-4.3c0.2-0.1,0.4-0.3,0.4-0.5c0-0.4-0.3-0.7-0.7-0.7c-0.2,0-0.4,0.1-0.5,0.2L12,8z"/>
</svg>
